<?xml version="1.0" encoding="UTF-8" standalone="no"?>
<!-- Created with Inkscape (http://www.inkscape.org/) -->
<svg
   xmlns:dc="http://purl.org/dc/elements/1.1/"
   xmlns:cc="http://web.resource.org/cc/"
   xmlns:rdf="http://www.w3.org/1999/02/22-rdf-syntax-ns#"
   xmlns:svg="http://www.w3.org/2000/svg"
   xmlns="http://www.w3.org/2000/svg"
   xmlns:sodipodi="http://sodipodi.sourceforge.net/DTD/sodipodi-0.dtd"
   xmlns:inkscape="http://www.inkscape.org/namespaces/inkscape"
   version="1.0"
   width="42"
   height="42"
   viewBox="0 0 44 44"
   id="Layer_1"
   xml:space="preserve"
   sodipodi:version="0.32"
   inkscape:version="0.44.1"
   sodipodi:docname="event.svg"
   sodipodi:docbase="D:\devel\Symbian\SmartCaching\SmartGPX\data\SVG"><metadata
   id="metadata12"><rdf:RDF><cc:Work
       rdf:about=""><dc:format>image/svg+xml</dc:format><dc:type
         rdf:resource="http://purl.org/dc/dcmitype/StillImage" /></cc:Work></rdf:RDF></metadata><sodipodi:namedview
   inkscape:window-height="846"
   inkscape:window-width="1173"
   inkscape:pageshadow="2"
   inkscape:pageopacity="0.0"
   guidetolerance="10.0"
   gridtolerance="10.0"
   objecttolerance="10.0"
   borderopacity="1.0"
   bordercolor="#666666"
   pagecolor="#ffffff"
   id="base"
   inkscape:zoom="11.313708"
   inkscape:cx="17.839752"
   inkscape:cy="20.906094"
   inkscape:window-x="63"
   inkscape:window-y="67"
   inkscape:current-layer="Layer_1"
   showguides="true"
   inkscape:guide-bbox="true"
   height="42px"
   width="42px" /><defs
   id="defs4020" />


<path
   style="fill:#8b8985;fill-opacity:1;fill-rule:evenodd;stroke:none;stroke-width:0.66134226px;stroke-linecap:butt;stroke-linejoin:miter;stroke-opacity:1"
   d="M 42.643384,4.8979053 L 27.084838,4.8524543 C 24.655136,4.8054203 24.619132,4.7697623 24.618269,7.6841973 L 24.579122,16.649745 C 24.608019,18.60458 24.538394,18.834256 25.438979,18.665467 L 34.361265,18.486027 L 32.393255,23.075593 L 38.227132,18.877275 L 41.089768,19.031801 C 43.879837,18.996039 43.962587,18.496851 43.955506,16.819421 L 43.888015,6.8608753 C 43.91456,4.6407603 43.789891,4.8526823 42.643384,4.8979053 z "
   id="path4552"
   sodipodi:nodetypes="cccccccccccc" /><path
   sodipodi:nodetypes="cccccccccccc"
   id="path3665"
   d="M 3.2470722,5.3113833 L 18.80562,5.2659323 C 21.235321,5.2188983 21.271325,5.1832393 21.272187,8.0976753 L 21.311335,17.063224 C 21.282439,19.018058 21.352063,19.247735 20.451478,19.078945 L 11.830713,18.870761 L 14.554119,20.930495 L 7.2534847,19.429542 L 4.8006899,19.44528 C 2.010619,19.409518 1.9278694,18.910329 1.9349502,17.232899 L 2.0024412,7.2743533 C 1.9758971,5.0542383 2.1005654,5.2661593 3.2470722,5.3113833 z "
   style="fill:#959696;fill-opacity:1;fill-rule:evenodd;stroke:none;stroke-width:0.66134226px;stroke-linecap:butt;stroke-linejoin:miter;stroke-opacity:1" /><g
   id="g4672"
   transform="matrix(0.720326,0,0,0.731796,6.520808,3.036644)"><rect
     transform="scale(-1,1)"
     id="rect4017"
     style="fill:none"
     y="21.858709"
     x="-18.293449"
     height="17.346121"
     width="17.317211" /><path
     sodipodi:nodetypes="ccc"
     id="path6717"
     d="M 9.9332601,22.28143 C 20.710943,22.505978 20.351688,38.926044 9.9332601,38.954113 C -1.4766593,38.993481 -1.6969086,22.225733 9.9332601,22.28143 z "
     style="fill:#f9d900;fill-opacity:1;fill-rule:evenodd;stroke:black;stroke-width:0.71995294;stroke-linecap:butt;stroke-linejoin:miter;stroke-miterlimit:4;stroke-dasharray:none;stroke-opacity:1" /><path
     sodipodi:nodetypes="ccc"
     id="path7618"
     d="M 8.9310365,27.061487 C 11.946778,27.237042 11.654925,30.596613 9.0472452,30.723664 C 6.1159245,30.796841 5.8908137,26.888929 8.9310365,27.061487 z "
     style="fill:#eff3f3;fill-opacity:1;fill-rule:evenodd;stroke:none;stroke-width:1px;stroke-linecap:butt;stroke-linejoin:miter;stroke-opacity:1"
     inkscape:transform-center-x="9.4407647" /><path
     inkscape:transform-center-x="4.3545841"
     style="fill:#050000;fill-opacity:1;fill-rule:evenodd;stroke:none;stroke-width:1px;stroke-linecap:butt;stroke-linejoin:miter;stroke-opacity:1"
     d="M 9.4921413,27.97794 C 10.883162,28.087006 10.748544,30.174212 9.5457432,30.253145 C 8.1936613,30.298608 8.0898285,27.870734 9.4921413,27.97794 z "
     id="path7606"
     sodipodi:nodetypes="ccc" /><path
     inkscape:transform-center-x="-8.9217667"
     style="fill:#eff3f3;fill-opacity:1;fill-rule:evenodd;stroke:none;stroke-width:1px;stroke-linecap:butt;stroke-linejoin:miter;stroke-opacity:1"
     d="M 13.726331,26.539509 C 10.876378,26.717357 11.152186,30.120802 13.61651,30.249512 C 16.386684,30.323645 16.59942,26.364697 13.726331,26.539509 z "
     id="path7620"
     sodipodi:nodetypes="ccc" /><path
     sodipodi:nodetypes="ccc"
     id="path7622"
     d="M 13.380042,27.551642 C 11.989021,27.658416 12.123639,29.701746 13.32644,29.77902 C 14.678522,29.823528 14.782355,27.446689 13.380042,27.551642 z "
     style="fill:#050000;fill-opacity:1;fill-rule:evenodd;stroke:none;stroke-width:1px;stroke-linecap:butt;stroke-linejoin:miter;stroke-opacity:1"
     inkscape:transform-center-x="-4.3545841" /><path
     sodipodi:nodetypes="cccc"
     id="path7626"
     d="M 7.2714806,23.024221 C -0.085879351,24.828252 -0.17536919,36.048208 6.6660721,38.075606 C 5.1236969,35.160898 3.8079225,32.869051 3.8733824,30.28973 C 3.92553,27.835952 6.0369354,25.046788 7.2714806,23.024221 z "
     style="fill:#f96b00;fill-opacity:1;fill-rule:evenodd;stroke:none;stroke-width:1px;stroke-linecap:butt;stroke-linejoin:miter;stroke-opacity:1" /><g
     transform="matrix(-0.373651,6.048795e-2,-3.893183e-2,0.301677,20.94107,23.00845)"
     id="g7628"><path
       style="fill:#d50000;fill-opacity:1;fill-rule:evenodd;stroke:black;stroke-width:1.29919839;stroke-linecap:butt;stroke-linejoin:miter;stroke-miterlimit:4;stroke-dasharray:none;stroke-opacity:1"
       d="M 5.4722099,24.575255 C 18.598954,44.739376 25.628627,43.506057 38.103858,24.249967 C 22.700584,32.158384 19.676353,32.167505 5.4722099,24.575255 z "
       id="path7608"
       sodipodi:nodetypes="ccc" /><path
       style="fill:#eff3f3;fill-opacity:1;fill-rule:evenodd;stroke:none;stroke-width:1px;stroke-linecap:butt;stroke-linejoin:miter;stroke-opacity:1"
       d="M 16.344532,29.973251 C 18.516358,34.091155 25.808181,34.17043 27.282589,29.973251 C 24.059734,30.95123 20.675759,31.556844 16.344532,29.973251 z "
       id="path7624"
       sodipodi:nodetypes="ccc" /></g></g><path
   style="fill:#fffcfc;fill-opacity:1;fill-rule:evenodd;stroke:black;stroke-width:0.48015973px;stroke-linecap:butt;stroke-linejoin:miter;stroke-opacity:1"
   d="M 2.0878679,4.1337203 L 17.646415,4.0882693 C 20.076117,4.0412363 20.11212,4.0055773 20.112982,6.9200123 L 20.152131,15.885561 C 20.123234,17.840395 20.192858,18.070072 19.292274,17.901282 L 11.422883,17.970677 L 12.438619,21.626483 L 9.099778,18.390669 L 3.6414855,18.267617 C 0.85141465,18.231855 0.76866504,17.732666 0.7757459,16.055236 L 0.84323685,6.0966903 C 0.8166928,3.8765753 0.94136106,4.0884973 2.0878679,4.1337203 z "
   id="path2776"
   sodipodi:nodetypes="cccccccccccc" /><path
   style="fill:black;fill-opacity:1;fill-rule:nonzero;stroke:none;stroke-width:1px;stroke-linecap:butt;stroke-linejoin:miter;stroke-opacity:1"
   id="path4562"
   d="M 4.5658904,7.0718943 C 4.5598642,6.9199513 4.7148031,6.8289173 4.7848722,6.7145883 C 5.0430849,6.4192803 5.3850849,6.2414453 5.7091377,6.0375213 C 7.4216364,5.3175543 9.3068958,5.1083433 11.10441,4.7073263 C 11.6888,4.5870123 12.234702,4.7186433 12.798909,4.8346863 C 13.311814,5.0022993 13.481755,5.3602213 13.734075,5.7866063 C 13.90107,6.2767513 13.793882,6.7572133 13.732245,7.2509913 C 13.641844,7.7959393 13.349441,8.2418413 13.083553,8.7070693 C 12.805796,9.1715953 12.385749,9.3461873 11.938238,9.5741343 C 9.7950559,10.375272 8.5698793,10.581574 6.6763568,10.489928 C 5.1432493,10.405339 2.9331654,11.174216 9.3099357,9.6989923 C 8.9585281,9.7569073 8.9086966,10.07217 8.7214525,10.295879 C 8.579425,10.683555 8.6139404,11.090672 8.6129428,11.494418 C 8.6195887,11.957536 8.7768336,12.381271 8.9135759,12.812927 C 9.0608748,13.233212 9.3651047,13.501712 9.6659894,13.79932 C 10.061126,14.095701 10.52184,14.11738 10.985706,14.190454 C 12.649678,14.098012 14.572525,13.532109 8.9648476,14.731201 C 9.5824169,14.478223 10.083324,14.055091 10.574094,13.612943 C 11.016036,13.215882 11.257907,12.694657 11.524613,12.179227 L 15.30136,11.39236 C 15.040635,11.92909 14.806705,12.470823 14.361202,12.889333 C 13.87556,13.35014 13.378981,13.790141 12.762467,14.067434 C 10.976387,14.522579 9.1548433,15.305081 7.2766776,15.259742 C 6.7975159,15.16117 6.324698,15.114926 5.9315187,14.779602 C 5.6267855,14.455402 5.3126498,14.158826 5.1613805,13.718366 C 5.0209359,13.26933 4.8592148,12.828118 4.8489973,12.347749 C 4.8463649,11.92383 4.811395,11.496812 4.9419268,11.085195 C 5.1040518,10.796539 5.1652398,10.495943 5.5052603,10.353817 C 7.4212026,9.8951583 8.6547618,9.2971303 10.384053,9.4135613 C 11.948073,9.4642773 14.506988,9.0570393 8.1359073,10.225526 C 8.5919529,10.038111 9.0066088,9.9073333 9.3000199,9.4606133 C 9.5697653,9.0170073 9.8652853,8.5936903 9.9609795,8.0660653 C 10.025757,7.6038873 10.137712,7.1549243 9.9818077,6.6938793 C 9.7344899,6.3096243 9.5676346,6.0039433 9.082635,5.8784963 C 8.5236326,5.7907633 7.9771989,5.6868383 7.4073577,5.8126103 C 7.3054282,5.8281833 7.2034989,5.8437563 7.1015695,5.8593293 C 8.2512689,5.5860243 9.4009684,5.3127203 10.550667,5.0394153 C 10.90428,4.9548303 9.1498359,5.2933943 9.5072857,5.3592643 C 9.1827736,5.5462533 8.8411182,5.7064333 8.5779699,5.9859883 C 8.5059543,6.0574303 8.4116585,6.1867803 8.3384216,6.2236303 L 4.5658904,7.0718943 z " /><path
   style="fill:black;fill-opacity:1;fill-rule:nonzero;stroke:none;stroke-width:1px;stroke-linecap:butt;stroke-linejoin:miter;stroke-opacity:1"
   id="path4568"
   d="M 10.052966,15.334928 C 10.163983,15.456976 10.342369,15.494669 10.48297,15.572276 C 10.865221,15.746289 11.277797,15.817236 11.682734,15.911123 C 12.217571,16.036678 12.762371,16.03064 13.305443,16.046992 C 13.495608,16.051797 13.680087,16.004702 13.86741,15.983558 L 10.168991,17.087404 C 9.9800179,17.102831 9.7928746,17.141347 9.6020704,17.133683 C 9.0553734,17.104527 8.5061592,17.096683 7.9693365,16.965586 C 7.5593954,16.862266 7.1413621,16.782369 6.7571209,16.594842 C 6.6339537,16.543818 6.4526463,16.406292 6.3403075,16.422168 L 10.052966,15.334928 z " /><g
   id="g7419"
   transform="matrix(0.720326,0,0,0.731796,6.021232,3.110964)"><rect
     width="17.317211"
     height="17.346121"
     x="23.664722"
     y="21.514729"
     style="fill:none"
     id="rect4686" /><path
     style="fill:#b3d9d3;fill-opacity:1;fill-rule:evenodd;stroke:black;stroke-width:0.71995294;stroke-linecap:butt;stroke-linejoin:miter;stroke-miterlimit:4;stroke-dasharray:none;stroke-opacity:1"
     d="M 32.024911,21.937451 C 21.247228,22.161999 21.606483,38.582065 32.024911,38.610134 C 43.43483,38.649502 43.65508,21.881754 32.024911,21.937451 z "
     id="path4688"
     sodipodi:nodetypes="ccc" /><g
     id="g7410"><path
       sodipodi:nodetypes="ccc"
       id="path4690"
       d="M 32.222497,26.449295 C 29.206755,26.62485 29.498608,29.984421 32.106288,30.111472 C 35.037609,30.184649 35.262719,26.276737 32.222497,26.449295 z "
       style="fill:#eff3f3;fill-opacity:1;fill-rule:evenodd;stroke:none;stroke-width:1px;stroke-linecap:butt;stroke-linejoin:miter;stroke-opacity:1"
       inkscape:transform-center-x="9.4407647" /><path
       inkscape:transform-center-x="4.3545841"
       style="fill:#050000;fill-opacity:1;fill-rule:evenodd;stroke:none;stroke-width:1px;stroke-linecap:butt;stroke-linejoin:miter;stroke-opacity:1"
       d="M 31.527286,27.365748 C 30.136265,27.474814 30.270883,29.56202 31.473684,29.640953 C 32.825766,29.686416 32.929599,27.258542 31.527286,27.365748 z "
       id="path4692"
       sodipodi:nodetypes="ccc" /><path
       inkscape:transform-center-x="-8.9217667"
       style="fill:#eff3f3;fill-opacity:1;fill-rule:evenodd;stroke:none;stroke-width:1px;stroke-linecap:butt;stroke-linejoin:miter;stroke-opacity:1"
       d="M 27.226042,26.39669 C 30.075995,26.574538 29.800187,29.977983 27.335863,30.106693 C 24.565689,30.180826 24.352953,26.221878 27.226042,26.39669 z "
       id="path4694"
       sodipodi:nodetypes="ccc" /><path
       sodipodi:nodetypes="ccc"
       id="path4696"
       d="M 26.633586,27.408823 C 28.024607,27.515597 27.889989,29.558927 26.687188,29.636201 C 25.335106,29.680709 25.231273,27.30387 26.633586,27.408823 z "
       style="fill:#050000;fill-opacity:1;fill-rule:evenodd;stroke:none;stroke-width:1px;stroke-linecap:butt;stroke-linejoin:miter;stroke-opacity:1"
       inkscape:transform-center-x="-4.3545841" /><path
       sodipodi:nodetypes="cccc"
       id="path4698"
       d="M 34.68669,22.680242 C 42.04405,24.484273 42.13354,35.704229 35.292099,37.731627 C 36.834474,34.816919 38.150249,32.525072 38.084789,29.945751 C 38.032641,27.491973 35.921236,24.702809 34.68669,22.680242 z "
       style="fill:#6fb7a7;fill-opacity:1;fill-rule:evenodd;stroke:none;stroke-width:1px;stroke-linecap:butt;stroke-linejoin:miter;stroke-opacity:1" /><path
       style="fill:#bc1f1f;fill-opacity:1;fill-rule:evenodd;stroke:black;stroke-width:0.51632577;stroke-linecap:butt;stroke-linejoin:round;stroke-miterlimit:4;stroke-dasharray:none;stroke-opacity:1"
       d="M 24.37431,31.744576 C 28.147029,32.556042 31.517428,32.168687 35.290147,31.215375 C 34.00188,33.703894 32.920187,35.718669 29.070383,35.705946 C 26.540221,35.233218 25.035901,33.389142 24.37431,31.744576 z "
       id="path6519"
       sodipodi:nodetypes="cccc" /><path
       style="fill:#d4d3d1;fill-opacity:1;fill-rule:evenodd;stroke:none;stroke-width:0.6982916px;stroke-linecap:butt;stroke-linejoin:miter;stroke-opacity:1"
       d="M 25.233369,32.165615 C 27.569869,32.62897 30.057788,32.384557 32.54859,32.094493 C 30.180717,33.730599 27.538027,33.795837 25.233369,32.165615 z "
       id="path7408"
       sodipodi:nodetypes="ccc" /></g></g><path
   sodipodi:nodetypes="cccccccccccc"
   id="path2778"
   d="M 41.773981,3.8183813 L 26.215435,3.7729303 C 23.785732,3.7258963 23.749728,3.6902383 23.748866,6.6046733 L 23.709719,15.570221 C 23.738616,17.525056 23.668991,17.754732 24.569575,17.585943 L 33.286941,17.475897 L 31.523852,22.967591 L 37.562649,17.867146 L 40.220364,17.952277 C 43.010434,17.916515 43.093184,17.417327 43.086103,15.739897 L 43.018612,5.7813513 C 43.045157,3.5612363 42.920488,3.7731583 41.773981,3.8183813 z "
   style="fill:#fdfdfd;fill-opacity:1;fill-rule:evenodd;stroke:black;stroke-width:0.48015973px;stroke-linecap:butt;stroke-linejoin:miter;stroke-opacity:1" /><path
   style="fill:black;fill-opacity:1;fill-rule:nonzero;stroke:none;stroke-width:1px;stroke-linecap:butt;stroke-linejoin:miter;stroke-opacity:1"
   id="path4564"
   d="M 34.943534,5.1347123 C 34.94913,5.3107203 34.931818,5.4860633 34.925963,5.6616533 C 34.88713,6.2050233 34.762966,6.7351383 34.647773,7.2654363 C 34.472591,8.0112453 34.252188,8.7449403 34.033596,9.4784663 C 33.84162,10.125235 33.642418,10.769609 33.440961,11.413285 C 33.355226,11.755548 33.156399,12.044112 33.002372,12.352658 L 29.216342,13.109626 C 29.374906,12.814839 29.583198,12.544118 29.666384,12.209224 C 29.871184,11.567428 30.073071,10.924742 30.263705,10.278268 C 30.482637,9.5487733 30.701935,8.8187363 30.878274,8.0771003 C 30.992395,7.5551953 31.116277,7.0336923 31.156338,6.4989243 C 31.161224,6.3269943 31.180876,6.1553153 31.171003,5.9829763 L 34.943534,5.1347123 z " /><path
   style="fill:black;fill-opacity:1;fill-rule:nonzero;stroke:none;stroke-width:1px;stroke-linecap:butt;stroke-linejoin:miter;stroke-opacity:1"
   id="path4566"
   d="M 31.465921,14.752288 C 31.48357,14.71182 31.633448,14.81422 31.697491,14.837896 C 32.75714,14.903653 29.652055,15.420436 28.615799,15.654802 C 28.887626,15.48592 29.058671,15.202484 29.257462,14.957003 L 33.044729,14.212413 C 32.842688,14.472349 32.653375,14.746358 32.417407,14.976081 C 31.041862,15.31504 29.42784,16.366137 27.969813,15.859164 C 27.882984,15.77793 27.70669,15.751311 27.69339,15.600552 L 31.465921,14.752288 z " /></svg>