<?xml version="1.0" encoding="UTF-8" standalone="no"?>
<!-- Created with Inkscape (http://www.inkscape.org/) -->
<svg
   xmlns:dc="http://purl.org/dc/elements/1.1/"
   xmlns:cc="http://web.resource.org/cc/"
   xmlns:rdf="http://www.w3.org/1999/02/22-rdf-syntax-ns#"
   xmlns:svg="http://www.w3.org/2000/svg"
   xmlns="http://www.w3.org/2000/svg"
   xmlns:sodipodi="http://sodipodi.sourceforge.net/DTD/sodipodi-0.dtd"
   xmlns:inkscape="http://www.inkscape.org/namespaces/inkscape"
   version="1.0"
   width="42"
   height="42"
   viewBox="0 0 44 44"
   id="Layer_1"
   xml:space="preserve"
   sodipodi:version="0.32"
   inkscape:version="0.44.1"
   sodipodi:docname="mega.svg"
   sodipodi:docbase="D:\devel\Symbian\SmartCaching\SmartGPX\data\SVG"
   inkscape:export-filename="D:\devel\Symbian\SmartCaching\images\SVG\mega.png"
   inkscape:export-xdpi="90"
   inkscape:export-ydpi="90"><metadata
   id="metadata12"><rdf:RDF><cc:Work
       rdf:about=""><dc:format>image/svg+xml</dc:format><dc:type
         rdf:resource="http://purl.org/dc/dcmitype/StillImage" /></cc:Work></rdf:RDF></metadata><sodipodi:namedview
   inkscape:window-height="804"
   inkscape:window-width="1152"
   inkscape:pageshadow="2"
   inkscape:pageopacity="0.0"
   guidetolerance="10.0"
   gridtolerance="10.0"
   objecttolerance="10.0"
   borderopacity="1.0"
   bordercolor="#666666"
   pagecolor="#ffffff"
   id="base"
   inkscape:zoom="11.313708"
   inkscape:cx="15.722273"
   inkscape:cy="20.018661"
   inkscape:window-x="106"
   inkscape:window-y="56"
   inkscape:current-layer="Layer_1"
   height="42px"
   width="42px" /><defs
   id="defs4020" />


<path
   style="fill:#e90019;fill-opacity:1;fill-rule:evenodd;stroke:none;stroke-width:1px;stroke-linecap:butt;stroke-linejoin:miter;stroke-opacity:1"
   d="M 33.601696,30.993678 C 33.592595,32.668772 35.932127,32.725251 35.970843,30.993678 C 35.977554,29.309309 33.597331,29.633699 33.601696,30.993678 z "
   id="path3723"
   sodipodi:nodetypes="ccc" /><path
   style="fill:none;fill-opacity:0.75;fill-rule:evenodd;stroke:black;stroke-width:1.61739182px;stroke-linecap:butt;stroke-linejoin:miter;stroke-opacity:1"
   d="M 1.1330146,32.211856 L 2.1252497,17.797709 L 3.1174843,26.90138 L 5.5980718,16.659748 L 6.094189,31.832535"
   id="path3725" /><g
   id="g7431"
   transform="matrix(0.693954,0,0,0.763058,7.213449,0.342044)"><path
     sodipodi:nodetypes="cccccccccccc"
     id="path4552"
     d="M 50.841084,2.441855 L 29.24177,2.3797458 C 25.868711,2.3154743 25.818728,2.2667465 25.817531,6.2493273 L 25.763184,18.500763 C 25.8033,21.172047 25.706643,21.4859 26.956889,21.255249 L 39.343345,21.010045 L 36.611235,27.281694 L 44.710176,21.544686 L 48.684259,21.755846 C 52.557603,21.706977 52.672481,21.024835 52.662651,18.732624 L 52.568956,5.1242563 C 52.605806,2.0904656 52.432734,2.3800572 50.841084,2.441855 z "
     style="fill:#8b8985;fill-opacity:1;fill-rule:evenodd;stroke:none;stroke-width:0.66134226px;stroke-linecap:butt;stroke-linejoin:miter;stroke-opacity:1" /><path
     style="fill:#959696;fill-opacity:1;fill-rule:evenodd;stroke:none;stroke-width:0.66134226px;stroke-linecap:butt;stroke-linejoin:miter;stroke-opacity:1"
     d="M -3.851256,3.0068729 L 17.748059,2.9447637 C 21.121118,2.8804922 21.171101,2.8317644 21.172298,6.8143452 L 21.226645,19.065782 C 21.186529,21.737066 21.283186,22.050919 20.03294,21.820268 L 8.0650728,21.535785 L 11.845869,24.350414 L 1.7106878,22.29936 L -1.6944301,22.320865 C -5.567775,22.271996 -5.682653,21.589854 -5.672823,19.297643 L -5.579128,5.6892744 C -5.615978,2.6554835 -5.442906,2.9450751 -3.851256,3.0068729 z "
     id="path3665"
     sodipodi:nodetypes="cccccccccccc" /><g
     transform="translate(0.693541,-0.101566)"
     id="g4672"><rect
       width="17.317211"
       height="17.346121"
       x="-18.293449"
       y="21.858709"
       style="fill:none"
       id="rect4017"
       transform="scale(-1,1)" /><path
       style="fill:#f9d900;fill-opacity:1;fill-rule:evenodd;stroke:black;stroke-width:0.71995294;stroke-linecap:butt;stroke-linejoin:miter;stroke-miterlimit:4;stroke-dasharray:none;stroke-opacity:1"
       d="M 9.9332601,22.28143 C 20.710943,22.505978 20.351688,38.926044 9.9332601,38.954113 C -1.4766593,38.993481 -1.6969086,22.225733 9.9332601,22.28143 z "
       id="path6717"
       sodipodi:nodetypes="ccc" /><path
       inkscape:transform-center-x="9.4407647"
       style="fill:#eff3f3;fill-opacity:1;fill-rule:evenodd;stroke:none;stroke-width:1px;stroke-linecap:butt;stroke-linejoin:miter;stroke-opacity:1"
       d="M 8.9310365,27.061487 C 11.946778,27.237042 11.654925,30.596613 9.0472452,30.723664 C 6.1159245,30.796841 5.8908137,26.888929 8.9310365,27.061487 z "
       id="path7618"
       sodipodi:nodetypes="ccc" /><path
       sodipodi:nodetypes="ccc"
       id="path7606"
       d="M 9.4921413,27.97794 C 10.883162,28.087006 10.748544,30.174212 9.5457432,30.253145 C 8.1936613,30.298608 8.0898285,27.870734 9.4921413,27.97794 z "
       style="fill:#050000;fill-opacity:1;fill-rule:evenodd;stroke:none;stroke-width:1px;stroke-linecap:butt;stroke-linejoin:miter;stroke-opacity:1"
       inkscape:transform-center-x="4.3545841" /><path
       sodipodi:nodetypes="ccc"
       id="path7620"
       d="M 13.726331,26.539509 C 10.876378,26.717357 11.152186,30.120802 13.61651,30.249512 C 16.386684,30.323645 16.59942,26.364697 13.726331,26.539509 z "
       style="fill:#eff3f3;fill-opacity:1;fill-rule:evenodd;stroke:none;stroke-width:1px;stroke-linecap:butt;stroke-linejoin:miter;stroke-opacity:1"
       inkscape:transform-center-x="-8.9217667" /><path
       inkscape:transform-center-x="-4.3545841"
       style="fill:#050000;fill-opacity:1;fill-rule:evenodd;stroke:none;stroke-width:1px;stroke-linecap:butt;stroke-linejoin:miter;stroke-opacity:1"
       d="M 13.380042,27.551642 C 11.989021,27.658416 12.123639,29.701746 13.32644,29.77902 C 14.678522,29.823528 14.782355,27.446689 13.380042,27.551642 z "
       id="path7622"
       sodipodi:nodetypes="ccc" /><path
       style="fill:#f96b00;fill-opacity:1;fill-rule:evenodd;stroke:none;stroke-width:1px;stroke-linecap:butt;stroke-linejoin:miter;stroke-opacity:1"
       d="M 7.2714806,23.024221 C -0.085879351,24.828252 -0.17536919,36.048208 6.6660721,38.075606 C 5.1236969,35.160898 3.8079225,32.869051 3.8733824,30.28973 C 3.92553,27.835952 6.0369354,25.046788 7.2714806,23.024221 z "
       id="path7626"
       sodipodi:nodetypes="cccc" /><g
       id="g7628"
       transform="matrix(-0.373651,6.048795e-2,-3.893183e-2,0.301677,20.94107,23.00845)"><path
         sodipodi:nodetypes="ccc"
         id="path7608"
         d="M 5.4722099,24.575255 C 18.598954,44.739376 25.628627,43.506057 38.103858,24.249967 C 22.700584,32.158384 19.676353,32.167505 5.4722099,24.575255 z "
         style="fill:#d50000;fill-opacity:1;fill-rule:evenodd;stroke:black;stroke-width:1.29919839;stroke-linecap:butt;stroke-linejoin:miter;stroke-miterlimit:4;stroke-dasharray:none;stroke-opacity:1" /><path
         sodipodi:nodetypes="ccc"
         id="path7624"
         d="M 16.344532,29.973251 C 18.516358,34.091155 25.808181,34.17043 27.282589,29.973251 C 24.059734,30.95123 20.675759,31.556844 16.344532,29.973251 z "
         style="fill:#eff3f3;fill-opacity:1;fill-rule:evenodd;stroke:none;stroke-width:1px;stroke-linecap:butt;stroke-linejoin:miter;stroke-opacity:1" /></g></g><path
     sodipodi:nodetypes="cccccccccccc"
     id="path2776"
     d="M -5.4605335,1.3975954 L 16.138781,1.3354862 C 19.51184,1.2712147 19.561823,1.2224869 19.56302,5.2050677 L 19.617367,17.456504 C 19.577251,20.127788 19.673908,20.441641 18.423662,20.21099 L 7.4988982,20.305818 L 8.9090046,25.301482 L 4.2738236,20.879737 L -3.3037076,20.711587 C -7.1770525,20.662718 -7.2919305,19.980576 -7.2821005,17.688365 L -7.1884055,4.0799969 C -7.2252555,1.046206 -7.0521835,1.3357976 -5.4605335,1.3975954 z "
     style="fill:#fffcfc;fill-opacity:1;fill-rule:evenodd;stroke:black;stroke-width:0.66134226px;stroke-linecap:butt;stroke-linejoin:miter;stroke-opacity:1" /><path
     d="M -2.0203929,5.4126134 C -2.0287589,5.2049833 -1.8136634,5.080586 -1.7163892,4.9243546 C -1.3579227,4.5208156 -0.88313767,4.2778043 -0.43326809,3.9991424 C 1.9441261,3.0153055 4.561357,2.729419 7.0567757,2.1814279 C 7.868061,2.0170185 8.6259147,2.1968927 9.4091805,2.3554663 C 10.121227,2.5845093 10.357149,3.07361 10.707435,3.6562663 C 10.939268,4.3260493 10.790463,4.9826023 10.704894,5.65735 C 10.579395,6.4020228 10.173463,7.0113488 9.8043405,7.6470839 C 9.418742,8.2818593 8.8356076,8.5204391 8.214346,8.831929 C 5.2390504,9.9266843 3.5381862,10.208597 0.90948397,10.083364 C -1.2188685,9.9677723 -4.2870404,11.018443 4.5655772,9.0025473 C 4.077732,9.0816893 4.0085529,9.5124953 3.7486093,9.8181953 C 3.5514382,10.347955 3.5993545,10.904281 3.5979696,11.456 C 3.6071958,12.088852 3.8254926,12.667886 4.0153266,13.257745 C 4.2198157,13.832065 4.6421661,14.19897 5.0598725,14.605652 C 5.6084249,15.010657 6.2480161,15.040282 6.8919829,15.140137 C 9.202009,15.013815 11.871422,14.240508 4.086505,15.87907 C 4.943852,15.533373 5.6392411,14.955163 6.3205582,14.350968 C 6.9340892,13.808383 7.2698696,13.096128 7.6401271,12.391793 L 12.883234,11.316538 C 12.521281,12.049979 12.196525,12.79026 11.578051,13.362153 C 10.903853,13.991847 10.214472,14.593109 9.3585901,14.972031 C 6.8790466,15.593987 4.3502685,16.663277 1.7428855,16.601322 C 1.0776843,16.466622 0.42128999,16.403429 -0.12454517,15.945209 C -0.54759434,15.50219 -0.98369649,15.096917 -1.1936976,14.495029 C -1.3886713,13.88142 -1.6131823,13.278503 -1.6273668,12.622078 C -1.6310213,12.042792 -1.6795687,11.459271 -1.4983566,10.896796 C -1.2732849,10.502347 -1.18834,10.091582 -0.71630303,9.8973663 C 1.9435239,9.2706083 3.6560252,8.453402 6.0567324,8.6125062 C 8.2279987,8.6818085 11.78044,8.125318 2.93572,9.7220573 C 3.5688301,9.4659553 4.1444805,9.2872453 4.5518115,8.6768021 C 4.9262884,8.0706143 5.336547,7.4921506 5.4693956,6.771151 C 5.5593237,6.1395829 5.7147468,5.5260753 5.4983105,4.8960555 C 5.154969,4.3709713 4.9233303,3.9532571 4.2500247,3.7818337 C 3.4739838,3.661946 2.7153916,3.5199331 1.9243035,3.6918004 C 1.7827989,3.7130808 1.6412944,3.7343613 1.4997899,3.7556417 C 3.095872,3.3821706 4.6919542,3.0086995 6.2880363,2.6352283 C 6.778943,2.5196425 4.343317,2.9822915 4.8395504,3.0723023 C 4.389043,3.3278238 3.9147364,3.5467102 3.549418,3.9287221 C 3.4494417,4.0263481 3.3185346,4.2031048 3.2168626,4.2534596 L -2.0203929,5.4126134 z "
     id="path4562"
     style="fill:black;fill-opacity:1;fill-rule:nonzero;stroke:none;stroke-width:1px;stroke-linecap:butt;stroke-linejoin:miter;stroke-opacity:1" /><path
     d="M 5.5970971,16.704063 C 5.7512175,16.870842 5.9988638,16.922349 6.1940547,17.028399 C 6.724719,17.266188 7.2974821,17.363138 7.8596391,17.491435 C 8.6021329,17.663006 9.3584566,17.654754 10.112382,17.677099 C 10.376381,17.683665 10.632486,17.619311 10.892538,17.590417 L 5.7581704,19.098825 C 5.4958257,19.119905 5.2360221,19.172537 4.9711362,19.162064 C 4.2121785,19.122223 3.4497262,19.111504 2.7044764,18.93236 C 2.1353714,18.791172 1.5550323,18.681993 1.0216056,18.425738 C 0.85061732,18.356013 0.59891556,18.168084 0.44296003,18.189779 L 5.5970971,16.704063 z "
     id="path4568"
     style="fill:black;fill-opacity:1;fill-rule:nonzero;stroke:none;stroke-width:1px;stroke-linecap:butt;stroke-linejoin:miter;stroke-opacity:1" /><g
     id="g7419"><rect
       id="rect4686"
       style="fill:none"
       y="21.514729"
       x="23.664722"
       height="17.346121"
       width="17.317211" /><path
       sodipodi:nodetypes="ccc"
       id="path4688"
       d="M 32.024911,21.937451 C 21.247228,22.161999 21.606483,38.582065 32.024911,38.610134 C 43.43483,38.649502 43.65508,21.881754 32.024911,21.937451 z "
       style="fill:#b3d9d3;fill-opacity:1;fill-rule:evenodd;stroke:black;stroke-width:0.71995294;stroke-linecap:butt;stroke-linejoin:miter;stroke-miterlimit:4;stroke-dasharray:none;stroke-opacity:1" /><g
       id="g7410"><path
         inkscape:transform-center-x="9.4407647"
         style="fill:#eff3f3;fill-opacity:1;fill-rule:evenodd;stroke:none;stroke-width:1px;stroke-linecap:butt;stroke-linejoin:miter;stroke-opacity:1"
         d="M 32.222497,26.449295 C 29.206755,26.62485 29.498608,29.984421 32.106288,30.111472 C 35.037609,30.184649 35.262719,26.276737 32.222497,26.449295 z "
         id="path4690"
         sodipodi:nodetypes="ccc" /><path
         sodipodi:nodetypes="ccc"
         id="path4692"
         d="M 31.527286,27.365748 C 30.136265,27.474814 30.270883,29.56202 31.473684,29.640953 C 32.825766,29.686416 32.929599,27.258542 31.527286,27.365748 z "
         style="fill:#050000;fill-opacity:1;fill-rule:evenodd;stroke:none;stroke-width:1px;stroke-linecap:butt;stroke-linejoin:miter;stroke-opacity:1"
         inkscape:transform-center-x="4.3545841" /><path
         sodipodi:nodetypes="ccc"
         id="path4694"
         d="M 27.226042,26.39669 C 30.075995,26.574538 29.800187,29.977983 27.335863,30.106693 C 24.565689,30.180826 24.352953,26.221878 27.226042,26.39669 z "
         style="fill:#eff3f3;fill-opacity:1;fill-rule:evenodd;stroke:none;stroke-width:1px;stroke-linecap:butt;stroke-linejoin:miter;stroke-opacity:1"
         inkscape:transform-center-x="-8.9217667" /><path
         inkscape:transform-center-x="-4.3545841"
         style="fill:#050000;fill-opacity:1;fill-rule:evenodd;stroke:none;stroke-width:1px;stroke-linecap:butt;stroke-linejoin:miter;stroke-opacity:1"
         d="M 26.633586,27.408823 C 28.024607,27.515597 27.889989,29.558927 26.687188,29.636201 C 25.335106,29.680709 25.231273,27.30387 26.633586,27.408823 z "
         id="path4696"
         sodipodi:nodetypes="ccc" /><path
         style="fill:#6fb7a7;fill-opacity:1;fill-rule:evenodd;stroke:none;stroke-width:1px;stroke-linecap:butt;stroke-linejoin:miter;stroke-opacity:1"
         d="M 34.68669,22.680242 C 42.04405,24.484273 42.13354,35.704229 35.292099,37.731627 C 36.834474,34.816919 38.150249,32.525072 38.084789,29.945751 C 38.032641,27.491973 35.921236,24.702809 34.68669,22.680242 z "
         id="path4698"
         sodipodi:nodetypes="cccc" /><path
         sodipodi:nodetypes="cccc"
         id="path6519"
         d="M 24.37431,31.744576 C 28.147029,32.556042 31.517428,32.168687 35.290147,31.215375 C 34.00188,33.703894 32.920187,35.718669 29.070383,35.705946 C 26.540221,35.233218 25.035901,33.389142 24.37431,31.744576 z "
         style="fill:#bc1f1f;fill-opacity:1;fill-rule:evenodd;stroke:black;stroke-width:0.51632577;stroke-linecap:butt;stroke-linejoin:round;stroke-miterlimit:4;stroke-dasharray:none;stroke-opacity:1" /><path
         sodipodi:nodetypes="ccc"
         id="path7408"
         d="M 25.233369,32.165615 C 27.569869,32.62897 30.057788,32.384557 32.54859,32.094493 C 30.180717,33.730599 27.538027,33.795837 25.233369,32.165615 z "
         style="fill:#d4d3d1;fill-opacity:1;fill-rule:evenodd;stroke:none;stroke-width:0.6982916px;stroke-linecap:butt;stroke-linejoin:miter;stroke-opacity:1" /></g></g><path
     style="fill:#fdfdfd;fill-opacity:1;fill-rule:evenodd;stroke:black;stroke-width:0.66134226px;stroke-linecap:butt;stroke-linejoin:miter;stroke-opacity:1"
     d="M 49.634126,0.96668401 L 28.034812,0.90457481 C 24.661753,0.84030331 24.61177,0.79157551 24.610573,4.7741563 L 24.556226,17.025592 C 24.596342,19.696876 24.499685,20.010729 25.749931,19.780078 L 37.851904,19.629701 L 35.404277,27.134109 L 43.7877,20.164343 L 47.477301,20.280675 C 51.350645,20.231806 51.465523,19.549664 51.455693,17.257453 L 51.361998,3.6490855 C 51.398848,0.61529461 51.225776,0.90488621 49.634126,0.96668401 z "
     id="path2778"
     sodipodi:nodetypes="cccccccccccc" /><path
     d="M 40.151687,2.7654517 C 40.159456,3.0059664 40.135422,3.2455729 40.127293,3.4855181 C 40.073384,4.2280333 39.901011,4.9524363 39.741093,5.6770893 C 39.497895,6.6962383 39.191918,7.6988334 38.888455,8.7011984 C 38.621943,9.5850094 38.345398,10.465547 38.065725,11.345132 C 37.946702,11.812834 37.670678,12.207158 37.456848,12.628787 L 32.200852,13.663185 C 32.420981,13.260358 32.710145,12.890416 32.825629,12.432783 C 33.109943,11.555768 33.390216,10.677537 33.654865,9.7941294 C 33.9588,8.7972724 34.263242,7.7996774 34.508047,6.7862303 C 34.666477,6.0730453 34.838457,5.3604103 34.894072,4.6296503 C 34.900856,4.3947073 34.928137,4.1601074 34.914431,3.9246054 L 40.151687,2.7654517 z "
     id="path4564"
     style="fill:black;fill-opacity:1;fill-rule:nonzero;stroke:none;stroke-width:1px;stroke-linecap:butt;stroke-linejoin:miter;stroke-opacity:1" /><path
     d="M 35.323854,15.907884 C 35.348355,15.852584 35.556426,15.992515 35.645334,16.024868 C 37.116402,16.114725 32.805736,16.820909 31.367143,17.141171 C 31.74451,16.910394 31.981964,16.523078 32.257938,16.187628 L 37.515652,15.170144 C 37.235166,15.525348 36.97235,15.899781 36.644765,16.213698 C 34.73515,16.676887 32.494468,18.113212 30.470345,17.420432 C 30.349805,17.309426 30.105062,17.273051 30.086599,17.067038 L 35.323854,15.907884 z "
     id="path4566"
     style="fill:black;fill-opacity:1;fill-rule:nonzero;stroke:none;stroke-width:1px;stroke-linecap:butt;stroke-linejoin:miter;stroke-opacity:1" /></g><g
   id="g3735"
   transform="matrix(0.721413,0,0,1.068058,8.318454,-10.85796)"><path
     id="path3727"
     d="M 2.8917471,34.654764 L -0.81075344,34.654764 L -0.81075344,39.541967 L 3.0866156,39.690064"
     style="fill:none;fill-opacity:0.75;fill-rule:evenodd;stroke:black;stroke-width:0.89573449px;stroke-linecap:butt;stroke-linejoin:miter;stroke-opacity:1" /><path
     id="path3729"
     d="M -0.66379309,37.077586 L 1.2327587,37.077586"
     style="fill:none;fill-opacity:0.75;fill-rule:evenodd;stroke:black;stroke-width:1px;stroke-linecap:butt;stroke-linejoin:miter;stroke-opacity:1" /></g><path
   style="fill:none;fill-opacity:0.75;fill-rule:evenodd;stroke:black;stroke-width:1.03065717px;stroke-linecap:butt;stroke-linejoin:miter;stroke-opacity:1"
   d="M 15.860444,25.041721 L 12.277914,24.817752 L 11.93672,31.760779 L 16.201637,31.53681 L 16.201637,28.625218 L 14.666266,28.625218"
   id="path3731" /><path
   style="fill:none;fill-opacity:0.75;fill-rule:evenodd;stroke:black;stroke-width:1.37165272px;stroke-linecap:butt;stroke-linejoin:miter;stroke-opacity:1"
   d="M 18.035925,32.038846 L 21.475647,23.303559 L 25.488656,31.80276 L 17.749279,26.844892"
   id="path3733" /><path
   style="fill:#e90019;fill-opacity:1;fill-rule:evenodd;stroke:none;stroke-width:1px;stroke-linecap:butt;stroke-linejoin:miter;stroke-opacity:1"
   d="M 43.446668,12.651215 L 39.178305,12.744005 L 35.248669,29.167859 L 43.446668,12.651215 z "
   id="path3721" /></svg>