<?xml version="1.0" encoding="UTF-8" standalone="no"?>
<!-- Created with Inkscape (http://www.inkscape.org/) -->
<svg
   xmlns:dc="http://purl.org/dc/elements/1.1/"
   xmlns:cc="http://web.resource.org/cc/"
   xmlns:rdf="http://www.w3.org/1999/02/22-rdf-syntax-ns#"
   xmlns:svg="http://www.w3.org/2000/svg"
   xmlns="http://www.w3.org/2000/svg"
   xmlns:sodipodi="http://sodipodi.sourceforge.net/DTD/sodipodi-0.dtd"
   xmlns:inkscape="http://www.inkscape.org/namespaces/inkscape"
   version="1.0"
   width="42"
   height="42"
   viewBox="0 0 44 44"
   id="Layer_1"
   xml:space="preserve"
   sodipodi:version="0.32"
   inkscape:version="0.44.1"
   sodipodi:docname="mystery.svg"
   sodipodi:docbase="D:\devel\Symbian\SmartCaching\SmartGPX\data\SVG"><metadata
   id="metadata12"><rdf:RDF><cc:Work
       rdf:about=""><dc:format>image/svg+xml</dc:format><dc:type
         rdf:resource="http://purl.org/dc/dcmitype/StillImage" /></cc:Work></rdf:RDF></metadata><sodipodi:namedview
   inkscape:window-height="573"
   inkscape:window-width="925"
   inkscape:pageshadow="2"
   inkscape:pageopacity="0.0"
   guidetolerance="10.0"
   gridtolerance="10.0"
   objecttolerance="10.0"
   borderopacity="1.0"
   bordercolor="#666666"
   pagecolor="#ffffff"
   id="base"
   inkscape:zoom="9.1923882"
   inkscape:cx="21"
   inkscape:cy="21.913171"
   inkscape:window-x="127"
   inkscape:window-y="215"
   inkscape:current-layer="Layer_1"
   height="42px"
   width="42px" /><defs
   id="defs4020" />


<path
   style="fill:#010310;fill-opacity:1;fill-rule:nonzero;stroke:none;stroke-width:1px;stroke-linecap:butt;stroke-linejoin:miter;stroke-opacity:1"
   id="path2793"
   d="M 18.897823,19.669078 C 19.075392,19.594259 19.316461,19.49373 19.50797,19.409812 C 20.172908,19.123212 20.862764,18.851238 21.552058,18.579077 C 22.52227,18.187363 23.546649,17.840893 24.578414,17.500353 C 25.512479,17.193391 26.48068,16.946814 27.454473,16.71165 C 29.610251,16.250554 31.616245,16.162162 33.746059,15.945168 C 34.392439,15.904839 34.924807,15.964643 35.455927,16.03023 C 36.023345,16.110342 36.502008,16.245085 36.977943,16.380197 C 37.433162,16.516643 37.807272,16.692228 38.1726,16.871352 C 38.576128,17.064759 38.831624,17.314224 39.091708,17.561241 C 39.381175,17.82921 39.454444,18.150564 39.491066,18.483084 C 39.510754,18.84397 39.148833,19.20464 38.72111,19.58862 C 38.068,20.092362 37.107719,20.489819 36.151729,20.894209 C 34.843253,21.409395 33.420836,21.816145 31.99706,22.201743 C 30.554214,22.582479 29.097793,22.931063 27.646734,23.291817 C 26.555773,23.550891 25.48986,23.848018 24.435314,24.16985 C 23.594019,24.427493 22.958965,24.762869 22.329029,25.119046 C 21.658095,25.535814 21.160553,25.974848 20.652666,26.410046 C 20.137268,26.872885 19.626609,27.33594 19.108977,27.798661 C 18.733286,28.140045 18.337039,28.480141 17.938392,28.820099 C 17.787698,28.946049 17.6459,29.072599 17.499661,29.19884 L 13.338906,29.608184 C 13.486004,29.481436 13.628334,29.354355 13.780221,29.227923 C 14.180483,28.888491 14.578883,28.548943 14.955475,28.208003 C 15.475203,27.74498 15.988118,27.281642 16.501707,26.81829 C 17.012864,26.377514 17.514091,25.933184 18.18311,25.509531 C 18.816293,25.142193 19.454373,24.793672 20.309804,24.523689 C 21.367038,24.194644 22.436462,23.892629 23.535333,23.632913 C 24.986285,23.271885 26.442591,22.923642 27.886904,22.546281 C 29.302462,22.166379 30.717899,21.7675 32.024841,21.260919 C 32.965639,20.86905 33.91511,20.484317 34.568247,19.993714 C 34.989226,19.624633 35.339872,19.28095 35.316334,18.933785 C 35.275022,18.609499 35.196838,18.296511 34.906975,18.036475 C 34.645243,17.793909 34.384722,17.550353 33.980068,17.361769 C 33.612514,17.187005 33.23764,17.015035 32.780722,16.883246 C 32.303689,16.752408 31.823604,16.622064 31.253038,16.548525 C 30.716859,16.491655 30.179812,16.441047 29.532378,16.492818 C 36.858206,15.715663 33.31702,16.004103 31.573099,16.373074 C 30.600945,16.601861 29.63435,16.842513 28.701193,17.146449 C 27.671618,17.482258 26.649046,17.823695 25.683219,18.213572 C 24.997427,18.483856 24.30975,18.753406 23.650591,19.039421 C 23.448314,19.125145 23.206372,19.213317 23.042178,19.309707 L 18.897823,19.669078 z " /><path
   style="fill:#010310;fill-opacity:1;fill-rule:nonzero;stroke:none;stroke-width:1px;stroke-linecap:butt;stroke-linejoin:miter;stroke-opacity:1"
   id="path2795"
   d="M 10.769852,32.574317 C 10.847395,32.495103 10.95683,32.418459 11.049985,32.340807 C 11.344868,32.102976 11.715451,31.888744 12.067305,31.66954 C 12.547749,31.377741 13.079124,31.121765 13.604182,30.860435 C 14.198643,30.570993 14.823583,30.406056 15.449808,30.218696 C 16.097668,30.043609 16.73173,29.926849 17.366987,29.800455 C 17.684851,29.74131 18.000289,29.688076 18.316479,29.632979 L 22.320044,29.232953 C 22.004614,29.287329 21.68981,29.34018 21.372966,29.397911 C 20.741134,29.519777 20.110487,29.63277 19.46552,29.80062 C 18.850762,29.975466 18.237193,30.128315 17.645494,30.403033 C 17.123379,30.657757 16.596625,30.907264 16.120298,31.19458 C 15.775474,31.405596 15.412716,31.611535 15.121936,31.841407 C 15.034553,31.91155 14.945381,31.984117 14.858251,32.053067 L 10.769852,32.574317 z " /><path
   d="M 18.592842,19.517681 C 18.770413,19.44286 19.011481,19.342331 19.202991,19.258413 C 19.867926,18.971814 20.557784,18.69984 21.247079,18.427678 C 22.21729,18.035964 23.241668,17.689493 24.273435,17.348956 C 25.2075,17.041992 26.175701,16.795416 27.149493,16.560252 C 29.305272,16.099156 31.311264,16.010763 33.44108,15.793768 C 34.087461,15.753441 34.619827,15.813244 35.150946,15.878832 C 35.718365,15.958944 36.197029,16.093687 36.672962,16.228799 C 37.128183,16.365245 37.502294,16.54083 37.867618,16.719954 C 38.271147,16.91336 38.526644,17.162827 38.786727,17.409841 C 39.076195,17.677812 39.149464,17.999167 39.186087,18.331684 C 39.205773,18.692572 38.843855,19.053242 38.416132,19.437221 C 37.763022,19.940963 36.80274,20.338423 35.84675,20.742811 C 34.538275,21.257997 33.115857,21.664746 31.69208,22.050346 C 30.249234,22.431081 28.792812,22.779664 27.341752,23.140419 C 26.250793,23.399493 25.18488,23.69662 24.130334,24.018452 C 23.289038,24.276096 22.653985,24.611471 22.02405,24.967648 C 21.353114,25.384415 20.855574,25.82345 20.347686,26.258648 C 19.832286,26.721486 19.321629,27.184543 18.803997,27.647264 C 18.428306,27.988648 18.032058,28.328742 17.633412,28.668699 C 17.482717,28.794649 17.34092,28.921201 17.194682,29.047444 L 13.033926,29.456787 C 13.181024,29.330039 13.323353,29.202957 13.47524,29.076526 C 13.875501,28.737093 14.273904,28.397546 14.650494,28.056605 C 15.170223,27.593584 15.683139,27.130243 16.196726,26.666894 C 16.707885,26.226115 17.209111,25.781785 17.87813,25.358133 C 18.511313,24.990795 19.149392,24.642273 20.004825,24.372291 C 21.062058,24.043246 22.131482,23.741229 23.230352,23.481516 C 24.681303,23.120488 26.137611,22.772243 27.581924,22.394884 C 28.997482,22.014981 30.412917,21.616101 31.71986,21.109522 C 32.660659,20.717651 33.61013,20.332918 34.263267,19.842317 C 34.684247,19.473236 35.03489,19.129553 35.011353,18.782387 C 34.970042,18.458102 34.891858,18.145112 34.601994,17.885078 C 34.340265,17.642511 34.079741,17.398955 33.67509,17.210371 C 33.307532,17.035608 32.932659,16.863637 32.475742,16.731848 C 31.998709,16.60101 31.518626,16.470666 30.948058,16.397128 C 30.411879,16.340256 29.874832,16.289649 29.227399,16.34142 C 36.553227,15.564265 33.012042,15.852705 31.268119,16.221675 C 30.295964,16.450464 29.32937,16.691115 28.396212,16.99505 C 27.366638,17.330861 26.344066,17.672297 25.37824,18.062173 C 24.692447,18.332458 24.00477,18.602008 23.345612,18.888022 C 23.143335,18.973747 22.901391,19.061919 22.737198,19.158308 L 18.592842,19.517681 z "
   id="path2797"
   style="fill:#010310;fill-opacity:1;fill-rule:nonzero;stroke:none;stroke-width:1px;stroke-linecap:butt;stroke-linejoin:miter;stroke-opacity:1" /><path
   d="M 10.464872,32.422919 C 10.542415,32.343705 10.651851,32.26706 10.745006,32.189409 C 11.039888,31.951579 11.410472,31.737345 11.762324,31.518141 C 12.242768,31.226343 12.774145,30.970367 13.299202,30.709036 C 13.893663,30.419594 14.518604,30.254658 15.144828,30.067298 C 15.792689,29.892212 16.42675,29.775451 17.062006,29.649055 C 17.379869,29.589912 17.69531,29.536679 18.011499,29.481581 L 22.015065,29.081556 C 21.699634,29.13593 21.38483,29.188781 21.067986,29.246513 C 20.436153,29.36838 19.805509,29.481371 19.160539,29.649222 C 18.545782,29.824068 17.932213,29.976917 17.340513,30.251635 C 16.8184,30.50636 16.291645,30.755866 15.815318,31.043181 C 15.470495,31.254198 15.107735,31.460138 14.816956,31.69001 C 14.729573,31.760152 14.640401,31.83272 14.553272,31.901668 L 10.464872,32.422919 z "
   id="path2799"
   style="fill:#010310;fill-opacity:1;fill-rule:nonzero;stroke:none;stroke-width:1px;stroke-linecap:butt;stroke-linejoin:miter;stroke-opacity:1" /><path
   d="M 6.6577308,8.825767 C 6.793058,8.687269 6.9779538,8.5011814 7.1202809,8.345842 C 7.6198155,7.8153235 8.1665702,7.3118764 8.7124201,6.8080837 C 9.4710246,6.0829873 10.347387,5.4416403 11.239543,4.8112762 C 12.048708,4.2430606 12.967899,3.7866285 13.906818,3.3513197 C 16.052262,2.4977929 18.43139,2.3341704 20.819014,1.9324959 C 21.572319,1.8578467 22.297259,1.9685455 23.027159,2.0899543 C 23.818226,2.2382488 24.561014,2.4876687 25.300844,2.7377726 C 26.016583,2.9903475 26.67608,3.3153684 27.328702,3.6469416 C 28.044573,4.004954 28.64053,4.4667355 29.239402,4.9239818 C 29.898122,5.4200171 30.349705,6.0148705 30.768553,6.6303905 C 31.19835,7.298422 31.156423,7.9660528 31.059384,8.6768332 C 30.818431,9.6093002 30.078551,10.345029 29.351757,11.093585 C 28.313949,12.04724 27.013526,12.800166 25.687662,13.51394 C 24.332775,14.218717 22.924989,14.863973 21.537503,15.531759 C 20.480682,16.011325 19.497562,16.561334 18.556244,17.157071 C 17.806285,17.633993 17.398474,18.2548 17.02036,18.914113 C 16.659665,19.685583 16.538221,20.498273 16.399681,21.303861 C 16.282917,22.160614 16.172257,23.017769 16.052602,23.874305 C 15.97199,24.506234 15.864533,25.135779 15.753956,25.765068 C 15.709279,25.998212 15.676272,26.232469 15.637434,26.466154 L 10.956657,27.223883 C 10.995993,26.989262 11.02906,26.754024 11.074667,26.519988 C 11.18783,25.891673 11.298564,25.26314 11.380786,24.63203 C 11.502691,23.774938 11.615824,22.917258 11.729774,22.059558 C 11.866084,21.243641 11.986134,20.42115 12.336724,19.636932 C 12.706312,18.95696 13.103092,18.311817 13.856655,17.812057 C 14.79319,17.202969 15.775153,16.643911 16.841027,16.163156 C 18.228071,15.494864 19.6361,14.850236 20.996592,14.151712 C 22.318701,13.448479 23.619339,12.710122 24.664924,11.772399 C 25.387013,11.047013 26.127836,10.33484 26.383582,9.426695 C 26.489031,8.7434952 26.536116,8.1073117 26.116977,7.4646777 C 25.701586,6.8643981 25.253328,6.2850293 24.603033,5.8036826 C 24.007124,5.3546722 23.411597,4.903828 22.699758,4.5547436 C 22.049281,4.2312441 21.3929,3.9129106 20.680298,3.6689579 C 19.943913,3.4267664 19.204311,3.1854884 18.416741,3.0493626 C 17.690385,2.9440905 16.969993,2.8504123 16.228244,2.9462458 C 24.406273,1.5076646 20.355147,2.0415902 18.615054,2.7245869 C 17.670994,3.1480923 16.747129,3.5935567 15.935684,4.156169 C 15.040922,4.7777814 14.161137,5.4098085 13.405883,6.1315014 C 12.862254,6.6318223 12.315468,7.1307819 11.822417,7.6602169 C 11.668816,7.8189032 11.468956,7.982115 11.37439,8.1605396 L 6.6577308,8.825767 z "
   id="path2789"
   style="fill:#011069;fill-opacity:1;fill-rule:nonzero;stroke:none;stroke-width:1px;stroke-linecap:butt;stroke-linejoin:miter;stroke-opacity:1" /><path
   d="M 11.115136,32.714443 C 11.121943,32.567812 11.171037,32.425935 11.198889,32.282197 C 11.296007,31.841954 11.513167,31.445387 11.701604,31.039624 C 11.967349,30.49948 12.336274,30.025649 12.691373,29.541902 C 13.10064,29.006121 13.687453,28.70081 14.250657,28.353991 C 14.854381,28.029892 15.506591,27.813759 16.149451,27.57979 C 16.475727,27.470309 16.805646,27.37177 17.134401,27.26978 L 21.631435,26.5293 C 21.302808,26.629952 20.973243,26.727784 20.64664,26.83465 C 20.00292,27.060234 19.350697,27.269392 18.742416,27.580097 C 18.179318,27.903752 17.592976,28.186689 17.170581,28.695216 C 16.811693,29.166729 16.44121,29.628588 16.175513,30.160434 C 15.986563,30.551042 15.769753,30.932254 15.668761,31.357765 C 15.639605,31.487605 15.610964,31.621933 15.580782,31.749565 L 11.115136,32.714443 z "
   id="path2791"
   style="fill:#011069;fill-opacity:1;fill-rule:nonzero;stroke:none;stroke-width:1px;stroke-linecap:butt;stroke-linejoin:miter;stroke-opacity:1" /><path
   style="fill:#2443fb;fill-opacity:1;fill-rule:nonzero;stroke:none;stroke-width:1px;stroke-linecap:butt;stroke-linejoin:miter;stroke-opacity:1"
   id="path1896"
   d="M 6.1108185,8.5455167 C 6.2461458,8.4070184 6.4310415,8.2209308 6.5733685,8.0655906 C 7.0729031,7.5350729 7.619658,7.0316256 8.1655081,6.527833 C 8.9241127,5.8027366 9.8004753,5.1613896 10.69263,4.5310255 C 11.501796,3.9628099 12.420986,3.5063778 13.359906,3.071069 C 15.505351,2.2175422 17.884478,2.0539197 20.272103,1.6522451 C 21.025408,1.5775959 21.750347,1.6882947 22.480248,1.8097035 C 23.271315,1.9579979 24.014103,2.2074179 24.753932,2.4575218 C 25.469671,2.7100969 26.129168,3.0351177 26.78179,3.3666908 C 27.497661,3.7247033 28.093618,4.1864847 28.692489,4.6437311 C 29.351209,5.1397663 29.802793,5.7346198 30.221642,6.3501398 C 30.65144,7.0181712 30.609511,7.685802 30.512473,8.3965818 C 30.27152,9.3290502 29.531638,10.064778 28.804846,10.813336 C 27.767037,11.766989 26.466614,12.519916 25.140751,13.23369 C 23.785863,13.938466 22.378076,14.583722 20.990589,15.25151 C 19.93377,15.731075 18.95065,16.281083 18.009333,16.876821 C 17.259373,17.353742 16.851561,17.97455 16.473449,18.633863 C 16.112754,19.405333 15.991308,20.218023 15.852769,21.023609 C 15.736006,21.880363 15.625344,22.737519 15.50569,23.594055 C 15.425078,24.225983 15.31762,24.85553 15.207044,25.484817 C 15.162368,25.717961 15.129361,25.952218 15.090521,26.185904 L 10.409745,26.943633 C 10.44908,26.709012 10.482147,26.473774 10.527755,26.239738 C 10.640918,25.611421 10.751652,24.982891 10.833875,24.351779 C 10.95578,23.494687 11.068913,22.637007 11.182863,21.779307 C 11.319173,20.96339 11.439222,20.140899 11.789812,19.356681 C 12.1594,18.67671 12.55618,18.031566 13.309743,17.531807 C 14.246279,16.922719 15.228241,16.363659 16.294115,15.882905 C 17.68116,15.214613 19.089188,14.569986 20.449682,13.871462 C 21.77179,13.168229 23.072428,12.429871 24.118013,11.492149 C 24.840101,10.766762 25.580924,10.054589 25.836671,9.1464441 C 25.94212,8.4632446 25.989204,7.8270611 25.570064,7.1844269 C 25.154673,6.5841473 24.706416,6.0047785 24.056123,5.5234319 C 23.460214,5.0744214 22.864685,4.6235774 22.152846,4.2744928 C 21.50237,3.9509935 20.845989,3.6326599 20.133385,3.3887071 C 19.397002,3.1465157 18.657399,2.9052376 17.86983,2.7691119 C 17.143474,2.6638398 16.423082,2.5701617 15.681333,2.6659951 C 23.85936,1.2274138 19.808235,1.7613395 18.068142,2.4443362 C 17.124081,2.8678416 16.200218,3.313306 15.388772,3.8759184 C 14.494012,4.4975306 13.614225,5.1295579 12.858972,5.8512506 C 12.315341,6.3515717 11.768556,6.850531 11.275505,7.3799661 C 11.121904,7.5386525 10.922044,7.7018641 10.827478,7.8802884 L 6.1108185,8.5455167 z " /><path
   style="fill:#2443fb;fill-opacity:1;fill-rule:nonzero;stroke:none;stroke-width:1px;stroke-linecap:butt;stroke-linejoin:miter;stroke-opacity:1"
   id="path1900"
   d="M 10.568224,32.434192 C 10.575031,32.287562 10.624125,32.145683 10.651976,32.001946 C 10.749095,31.561704 10.966256,31.165137 11.154692,30.759374 C 11.420438,30.21923 11.789363,29.745398 12.144463,29.261651 C 12.553728,28.725871 13.140541,28.420559 13.703745,28.07374 C 14.307469,27.749641 14.959679,27.533508 15.602539,27.29954 C 15.928815,27.190058 16.258735,27.09152 16.587489,26.98953 L 21.084524,26.24905 C 20.755895,26.349702 20.426331,26.447534 20.099727,26.554399 C 19.456008,26.779984 18.803786,26.98914 18.195504,27.299847 C 17.632407,27.623502 17.046065,27.906438 16.623669,28.414965 C 16.26478,28.886479 15.894298,29.348338 15.628601,29.880183 C 15.439652,30.270791 15.222839,30.652004 15.121849,31.077515 C 15.092693,31.207354 15.064052,31.341682 15.033869,31.469315 L 10.568224,32.434192 z " /></svg>