<?xml version="1.0" encoding="UTF-8" standalone="no"?>
<!-- Created with Inkscape (http://www.inkscape.org/) -->
<svg
   xmlns:dc="http://purl.org/dc/elements/1.1/"
   xmlns:cc="http://web.resource.org/cc/"
   xmlns:rdf="http://www.w3.org/1999/02/22-rdf-syntax-ns#"
   xmlns:svg="http://www.w3.org/2000/svg"
   xmlns="http://www.w3.org/2000/svg"
   xmlns:sodipodi="http://sodipodi.sourceforge.net/DTD/sodipodi-0.dtd"
   xmlns:inkscape="http://www.inkscape.org/namespaces/inkscape"
   version="1.0"
   width="42"
   height="42"
   viewBox="0 0 44 44"
   id="Layer_1"
   xml:space="preserve"
   sodipodi:version="0.32"
   inkscape:version="0.44.1"
   sodipodi:docname="locationless.svg"
   sodipodi:docbase="D:\devel\Symbian\SmartCaching\SmartGPX\data\SVG"><metadata
   id="metadata12"><rdf:RDF><cc:Work
       rdf:about=""><dc:format>image/svg+xml</dc:format><dc:type
         rdf:resource="http://purl.org/dc/dcmitype/StillImage" /></cc:Work></rdf:RDF></metadata><sodipodi:namedview
   inkscape:window-height="730"
   inkscape:window-width="1064"
   inkscape:pageshadow="2"
   inkscape:pageopacity="0.0"
   guidetolerance="10.0"
   gridtolerance="10.0"
   objecttolerance="10.0"
   borderopacity="1.0"
   bordercolor="#666666"
   pagecolor="#ffffff"
   id="base"
   inkscape:zoom="11.313708"
   inkscape:cx="21"
   inkscape:cy="21.571068"
   inkscape:window-x="93"
   inkscape:window-y="164"
   inkscape:current-layer="Layer_1"
   height="42px"
   width="42px" /><defs
   id="defs4020" />


<g
   transform="matrix(0.862384,0,0,0.841314,-6.278724e-2,-0.44514)"
   id="g3762"><path
     d="M 8.293889,35.649505 L 22.973564,41.134247 L 42.201868,20.617253 L 27.108683,14.726235 L 8.293889,35.649505 z "
     style="fill:#00616f;fill-opacity:1;fill-rule:evenodd;stroke:black;stroke-width:0.99999958px;stroke-linecap:butt;stroke-linejoin:miter;stroke-opacity:1"
     id="path3708" /><path
     d="M 42.480147,12.220118 L 42.480147,22.003644 L 27.556026,16.944417 L 27.556026,7.1608917 L 42.480147,12.220118 z "
     style="fill:#005562;fill-opacity:1;fill-rule:evenodd;stroke:black;stroke-width:1.00000024px;stroke-linecap:butt;stroke-linejoin:miter;stroke-opacity:1"
     id="path3702" /><path
     d="M 7.867398,25.786415 L 7.867398,35.17142 L 26.901044,16.830022 L 26.901044,7.4450176 L 7.867398,25.786415 z "
     style="fill:#005f6d;fill-opacity:1;fill-rule:evenodd;stroke:black;stroke-width:0.99999958px;stroke-linecap:butt;stroke-linejoin:miter;stroke-opacity:1"
     id="path3704" /><path
     d="M 22.154226,31.790183 L 22.154226,41.096576 L 7.79938,35.2499 L 7.79938,25.943506 L 22.154226,31.790183 z "
     style="fill:#00dbfe;fill-opacity:1;fill-rule:evenodd;stroke:black;stroke-width:1.00000024px;stroke-linecap:butt;stroke-linejoin:miter;stroke-opacity:1"
     id="path3700" /><path
     d="M 23.089837,31.935529 L 23.167445,40.951864 L 42.226098,22.115123 L 42.148491,13.098788 L 23.089837,31.935529 z "
     style="fill:#00dbfe;fill-opacity:1;fill-rule:evenodd;stroke:black;stroke-width:1.00000012px;stroke-linecap:butt;stroke-linejoin:miter;stroke-opacity:1"
     id="path3698" /><path
     d="M 17.267442,23.027541 L 7.6516618,25.585661 L 27.580932,6.7807652 L 37.346961,4.182674 L 17.267442,23.027541 z "
     style="fill:#0095ad;fill-opacity:1;fill-rule:evenodd;stroke:black;stroke-width:1.0000006px;stroke-linecap:butt;stroke-linejoin:miter;stroke-opacity:1"
     id="path3741" /></g><path
   sodipodi:type="spiral"
   style="opacity:1;color:black;fill:none;fill-opacity:0.75;fill-rule:evenodd;stroke:#cdcdcd;stroke-width:1px;stroke-linecap:butt;stroke-linejoin:miter;marker:none;marker-start:none;marker-mid:none;marker-end:none;stroke-miterlimit:4;stroke-dasharray:none;stroke-dashoffset:0;stroke-opacity:1;visibility:visible;display:inline;overflow:visible"
   id="path1882"
   sodipodi:cx="-0.87693626"
   sodipodi:cy="14.898898"
   sodipodi:expansion="1"
   sodipodi:revolution="3"
   sodipodi:radius="12.466131"
   sodipodi:argument="-17.980385"
   sodipodi:t0="0"
   d="M -0.87693626,14.898898 C -0.47350319,15.376294 -1.3214166,15.678248 -1.6703995,15.56943 C -2.6161214,15.274541 -2.6673915,14.027168 -2.2180009,13.311972 C -1.4141464,12.032654 0.39482771,12.026773 1.5034533,12.887301 C 3.130406,14.15016 3.0868024,16.585725 1.8051929,18.072751 C 0.097009032,20.054722 -2.9842286,19.958572 -4.8442523,18.25156 C -7.1849022,16.103459 -7.0347978,12.36855 -4.90013,10.138119 C -2.3147613,7.4367681 2.0779303,7.6415415 4.6773061,10.205172 C 7.7405807,13.226322 7.4807368,18.279195 4.4873221,21.246604 C 1.0313064,24.672594 -4.6832728,24.357435 -8.0181051,20.933689 C -11.807353,17.04341 -11.436721,10.666095 -7.5822592,6.9642661 C -3.2581356,2.811374 3.782646,3.237588 7.8511589,7.5230428 C 12.367979,12.28071 11.886107,19.985494 7.1694513,24.420457"
   transform="matrix(1.553178,0,0,1.663913,21.48088,-4.811255)" /></svg>